<svg width="1368" height="667" viewBox="0 0 1368 667" fill="none" xmlns="http://www.w3.org/2000/svg">
<g clip-path="url(#clip0_97_33)">
<rect width="1368" height="667" fill="#0053A3"/>
<rect x="19.5" y="23.5" width="249" height="31" rx="6.04793" fill="#E9DB7D" stroke="#73400E" stroke-width="5"/>
<path d="M218.17 214.327C205.828 226.373 185.785 226.391 173.42 214.369C163.225 204.456 157.434 190.622 156.186 177.329C154.948 164.138 158.119 150.391 167.357 141.375C171.125 137.698 175.854 134.946 181.139 133.498L181.06 51.593C181.052 43.7431 187.585 37.3675 195.643 37.36C203.702 37.3526 210.247 43.7164 210.254 51.5663L210.254 51.5676L210.317 133.49C215.604 134.929 220.337 137.672 224.112 141.341C233.358 150.333 236.55 164.07 235.335 177.26C234.11 190.552 228.347 204.396 218.17 214.327Z" fill="#E0A569" stroke="#73400E" stroke-width="11.9671"/>
<path d="M106.062 220.536L98.704 221.677C86.3543 223.573 73.7784 223.564 61.4381 221.65L54.0869 220.505C46.399 219.316 40.758 212.846 40.7847 205.261L40.9393 155.73C40.9504 153.176 41.6107 150.664 42.861 148.417C44.1114 146.17 45.913 144.258 48.1049 142.853L61.9176 134.008C64.1095 132.603 65.9111 130.692 67.1615 128.445C68.4119 126.198 69.0721 123.685 69.0832 121.131L69.3168 49.2711C69.2279 44.8851 70.1449 36.1195 80.834 36.1304C90.5238 36.1293 92.077 44.8974 91.9637 49.2832L91.719 121.143C91.7166 123.694 92.362 126.205 93.5978 128.453C94.8335 130.7 96.6213 132.614 98.8018 134.024L112.554 142.897C114.732 144.308 116.518 146.222 117.752 148.47C118.985 150.717 119.629 153.227 119.625 155.778L119.465 205.314C119.449 208.987 118.091 212.536 115.635 215.327C113.18 218.118 109.786 219.969 106.062 220.547M69.5103 165.406L69.4391 188.971ZM90.226 165.428L90.1605 188.987Z" fill="#E0A569"/>
<path d="M106.062 220.536L98.704 221.677C86.3543 223.573 73.7784 223.564 61.4381 221.65L54.0869 220.505C46.399 219.316 40.758 212.846 40.7847 205.261L40.9393 155.73C40.9504 153.176 41.6107 150.664 42.861 148.417C44.1114 146.17 45.913 144.258 48.1049 142.853L61.9176 134.008C64.1095 132.603 65.9111 130.692 67.1615 128.445C68.4119 126.198 69.0721 123.685 69.0832 121.131L69.3168 49.2711C69.2279 44.8851 70.1449 36.1195 80.834 36.1304C90.5238 36.1293 92.077 44.8974 91.9637 49.2832L91.719 121.143C91.7166 123.694 92.362 126.205 93.5978 128.453C94.8335 130.7 96.6213 132.614 98.8018 134.024L112.554 142.897C114.732 144.308 116.518 146.222 117.752 148.47C118.985 150.717 119.629 153.227 119.625 155.778L119.465 205.314C119.449 208.987 118.091 212.536 115.635 215.327C113.18 218.118 109.786 219.969 106.062 220.547M69.5103 165.406L69.4391 188.971M90.226 165.428L90.1605 188.987" stroke="#73400E" stroke-width="13.1441" stroke-linecap="round" stroke-linejoin="round"/>
<path d="M1310.78 494.389V508.579H1311.64L1311.65 508.757L1310.74 508.954L1329.19 594.464V594.465C1330.34 599.918 1328.23 605.197 1323.86 609.187C1319.47 613.186 1312.85 615.828 1305.25 615.828H1235.77C1228.16 615.828 1221.52 613.185 1217.13 609.191C1212.88 605.332 1210.78 600.276 1211.73 595.041L1211.83 594.528L1230.28 508.953L1229.45 508.774L1229.46 508.579H1230.31V494.389H1310.78ZM1242.5 545.08C1239.2 545.08 1235.86 546.964 1235.21 550.058L1226.97 588.233L1226.97 588.236C1225.93 593.09 1227.87 597.649 1231.46 600.919C1235.04 604.179 1240.31 606.22 1246.2 606.22H1294.82C1300.71 606.22 1305.98 604.179 1309.56 600.919C1313.04 597.752 1314.97 593.373 1314.14 588.69L1314.05 588.236V588.233L1305.81 550.058L1305.81 550.046L1305.8 550.033L1305.73 549.756C1305.33 548.381 1304.38 547.223 1303.14 546.411C1301.89 545.601 1300.38 545.151 1298.84 545.088L1298.53 545.08H1242.5ZM1243.93 455.5H1297.01C1305.4 455.5 1312.65 458.474 1317.36 462.926C1322.04 467.362 1324.16 473.204 1322.56 479.166C1321.66 482.395 1317.75 485.072 1312.81 485.072H1228.21C1223.2 485.072 1219.36 482.4 1218.46 479.166H1218.46C1217.7 476.357 1217.76 473.458 1218.64 470.666C1219.52 467.867 1221.21 465.218 1223.62 462.925C1226.04 460.631 1229.11 458.759 1232.63 457.466C1235.93 456.254 1239.53 455.586 1243.2 455.508L1243.93 455.5ZM1259.73 469.194C1258.36 469.194 1256.99 469.613 1255.93 470.431C1254.86 471.255 1254.15 472.469 1254.15 473.847C1254.15 475.224 1254.86 476.438 1255.93 477.263C1256.92 478.03 1258.19 478.445 1259.48 478.494L1259.73 478.499C1261.11 478.499 1262.48 478.081 1263.54 477.263C1264.61 476.438 1265.32 475.224 1265.32 473.847C1265.32 472.469 1264.61 471.255 1263.54 470.431C1262.54 469.664 1261.28 469.248 1259.99 469.199L1259.73 469.194ZM1281.58 469.194C1280.21 469.194 1278.84 469.613 1277.78 470.431C1276.71 471.255 1276 472.469 1276 473.847L1276.01 474.104C1276.09 475.375 1276.78 476.49 1277.78 477.263C1278.84 478.081 1280.21 478.499 1281.58 478.499C1282.96 478.499 1284.33 478.081 1285.39 477.263C1286.46 476.438 1287.17 475.224 1287.17 473.847L1287.16 473.591C1287.08 472.319 1286.39 471.204 1285.39 470.431C1284.33 469.613 1282.96 469.194 1281.58 469.194ZM1247.71 458.979C1246.34 458.979 1244.97 459.398 1243.91 460.216C1242.84 461.041 1242.13 462.254 1242.13 463.632C1242.13 465.009 1242.84 466.223 1243.91 467.048C1244.9 467.815 1246.17 468.23 1247.46 468.279L1247.71 468.284C1249.09 468.284 1250.46 467.866 1251.52 467.048C1252.58 466.223 1253.3 465.009 1253.3 463.632C1253.3 462.254 1252.58 461.041 1251.52 460.216C1250.46 459.398 1249.09 458.979 1247.71 458.979ZM1270.7 458.979C1269.32 458.98 1267.95 459.398 1266.89 460.216C1265.83 461.041 1265.12 462.254 1265.12 463.632C1265.12 465.009 1265.83 466.223 1266.89 467.048C1267.89 467.815 1269.15 468.23 1270.44 468.279L1270.7 468.284C1271.98 468.284 1273.27 467.916 1274.3 467.196L1274.5 467.048C1275.57 466.223 1276.28 465.009 1276.28 463.632L1276.27 463.375C1276.2 462.188 1275.59 461.137 1274.7 460.374L1274.5 460.216C1273.44 459.398 1272.07 458.979 1270.7 458.979ZM1293.68 458.979C1292.31 458.979 1290.94 459.398 1289.88 460.216C1288.81 461.041 1288.1 462.254 1288.1 463.632C1288.1 465.009 1288.81 466.223 1289.88 467.048C1290.87 467.815 1292.14 468.23 1293.42 468.279L1293.68 468.284C1295.06 468.284 1296.43 467.866 1297.49 467.048C1298.55 466.223 1299.26 465.009 1299.26 463.632C1299.26 462.254 1298.55 461.041 1297.49 460.216C1296.43 459.398 1295.06 458.98 1293.68 458.979Z" fill="#E9DB7D" stroke="#73400E" stroke-width="3"/>
<path d="M1210.84 535.852V545.032H1211.66L1211.67 545.147L1210.82 545.324L1222.55 602.171V602.172C1223.27 605.719 1221.96 609.151 1219.24 611.748C1216.5 614.352 1212.37 616.079 1207.61 616.079H1163.4C1158.64 616.079 1154.49 614.353 1151.75 611.752C1149.11 609.24 1147.8 605.952 1148.39 602.548L1148.45 602.219L1148.46 602.215L1160.2 545.324L1159.39 545.158L1159.4 545.032H1160.22V535.852H1210.84ZM1167.68 569.046C1165.46 569.046 1163.19 570.374 1162.75 572.565L1157.51 597.944V597.946C1156.83 601.251 1158.09 604.36 1160.44 606.589C1162.77 608.811 1166.21 610.197 1170.04 610.197H1200.97C1204.81 610.197 1208.24 608.811 1210.57 606.589C1212.85 604.429 1214.1 601.445 1213.56 598.256L1213.5 597.946V597.944L1208.26 572.565L1208.26 572.546L1208.21 572.35C1207.94 571.38 1207.3 570.56 1206.45 569.985C1205.67 569.45 1204.72 569.139 1203.76 569.063L1203.34 569.046H1167.68ZM1168.59 509.998H1202.37C1207.62 509.998 1212.16 511.944 1215.09 514.847C1218.02 517.738 1219.34 521.542 1218.34 525.425C1217.8 527.445 1215.44 529.152 1212.42 529.152H1158.59C1155.62 529.152 1153.36 527.553 1152.73 525.613L1152.67 525.425C1152.2 523.596 1152.24 521.707 1152.79 519.889C1153.33 518.066 1154.39 516.34 1155.89 514.846C1157.4 513.35 1159.32 512.128 1161.52 511.283C1163.59 510.491 1165.84 510.054 1168.13 510.003L1168.59 509.998ZM1178.65 518.597C1177.71 518.597 1176.76 518.897 1176.03 519.487C1175.29 520.084 1174.8 520.958 1174.8 521.942C1174.8 522.927 1175.29 523.801 1176.03 524.397C1176.67 524.914 1177.47 525.208 1178.3 525.273L1178.65 525.288C1179.59 525.288 1180.54 524.988 1181.27 524.397C1182.01 523.801 1182.5 522.927 1182.5 521.942C1182.5 520.958 1182.01 520.084 1181.27 519.487C1180.63 518.971 1179.83 518.677 1179 518.611L1178.65 518.597ZM1192.55 518.597C1191.61 518.597 1190.66 518.897 1189.93 519.487C1189.19 520.084 1188.71 520.958 1188.71 521.942L1188.71 522.126C1188.77 523.035 1189.24 523.838 1189.93 524.397C1190.66 524.988 1191.61 525.288 1192.55 525.288C1193.5 525.288 1194.44 524.988 1195.18 524.397C1195.92 523.801 1196.4 522.927 1196.4 521.942L1196.4 521.759C1196.34 520.849 1195.87 520.046 1195.18 519.487C1194.44 518.897 1193.5 518.597 1192.55 518.597ZM1171 511.806C1170.06 511.806 1169.11 512.106 1168.38 512.696C1167.64 513.293 1167.15 514.167 1167.15 515.151C1167.15 516.136 1167.64 517.009 1168.38 517.605C1169.02 518.122 1169.82 518.417 1170.65 518.482L1171 518.497C1171.94 518.497 1172.89 518.196 1173.62 517.605C1174.36 517.009 1174.85 516.136 1174.85 515.151C1174.85 514.167 1174.36 513.293 1173.62 512.696C1172.89 512.106 1171.94 511.806 1171 511.806ZM1185.63 511.806C1184.68 511.806 1183.74 512.106 1183 512.696C1182.26 513.293 1181.78 514.167 1181.78 515.151C1181.78 516.136 1182.26 517.009 1183 517.605C1183.64 518.122 1184.45 518.417 1185.27 518.482L1185.63 518.497C1186.57 518.497 1187.52 518.196 1188.25 517.605C1188.99 517.009 1189.47 516.136 1189.47 515.151L1189.47 514.968C1189.41 514.058 1188.94 513.255 1188.25 512.696C1187.52 512.106 1186.57 511.806 1185.63 511.806ZM1200.25 511.806C1199.31 511.806 1198.36 512.106 1197.63 512.696C1196.89 513.293 1196.4 514.167 1196.4 515.151C1196.4 516.136 1196.89 517.009 1197.63 517.605C1198.27 518.122 1199.08 518.417 1199.9 518.482L1200.25 518.497C1201.2 518.497 1202.14 518.196 1202.87 517.605C1203.61 517.009 1204.1 516.136 1204.1 515.151C1204.1 514.167 1203.61 513.293 1202.87 512.696C1202.14 512.106 1201.2 511.806 1200.25 511.806Z" fill="#E0A569" stroke="#73400E" stroke-width="2.5"/>
</g>
<defs>
<clipPath id="clip0_97_33">
<rect width="1368" height="667" fill="white"/>
</clipPath>
</defs>
</svg>
