<svg width="1368" height="667" viewBox="0 0 1368 667" fill="none" xmlns="http://www.w3.org/2000/svg">
<g clip-path="url(#clip0_104_117)">
<rect width="1368" height="667" fill="#0053A3"/>
<rect x="1116.5" y="23.5" width="227" height="31" rx="6.04793" fill="#E9DB7D" stroke="#73400E" stroke-width="5"/>
<path d="M91.5 490.222H91.5764ZM114.429 490.222H114.505ZM68.5714 490.222H68.6479ZM38 472.111C38 467.308 39.6105 462.701 42.4771 459.305C45.3437 455.908 49.2317 454 53.2857 454H129.714C133.768 454 137.656 455.908 140.523 459.305C143.39 462.701 145 467.308 145 472.111V598.889C145 603.692 143.39 608.299 140.523 611.695C137.656 615.092 133.768 617 129.714 617H53.2857C49.2317 617 45.3437 615.092 42.4771 611.695C39.6105 608.299 38 603.692 38 598.889V472.111ZM68.5714 562.667H114.429ZM38 526.444H145Z" fill="#E9DB7D"/>
<path d="M91.5 490.222H91.5764M114.429 490.222H114.505M68.5714 490.222H68.6479M68.5714 562.667H114.429M38 526.444H145M38 472.111C38 467.308 39.6105 462.701 42.4771 459.305C45.3437 455.908 49.2317 454 53.2857 454H129.714C133.768 454 137.656 455.908 140.523 459.305C143.39 462.701 145 467.308 145 472.111V598.889C145 603.692 143.39 608.299 140.523 611.695C137.656 615.092 133.768 617 129.714 617H53.2857C49.2317 617 45.3437 615.092 42.4771 611.695C39.6105 608.299 38 603.692 38 598.889V472.111Z" stroke="#73400E" stroke-width="6" stroke-linecap="round" stroke-linejoin="round"/>
<path d="M196.588 617C195.745 617 195.038 616.731 194.467 616.194C193.897 615.657 193.614 615 193.618 614.222V606.532C193.618 605.532 193.275 604.711 192.59 604.07C191.905 603.43 191.029 603.109 189.964 603.109H157.971C157.127 603.109 156.422 602.842 155.856 602.309C155.289 601.776 155.004 601.114 155 600.325C154.996 599.536 155.281 598.877 155.856 598.347C156.43 597.818 157.135 597.553 157.971 597.553H189.964C192.602 597.553 194.859 598.433 196.737 600.192C198.614 601.952 199.555 604.063 199.559 606.526V614.222C199.559 615.011 199.274 615.672 198.703 616.205C198.133 616.739 197.426 617.004 196.582 617M214.406 617C213.562 617 212.857 616.735 212.291 616.205C211.724 615.676 211.441 615.013 211.441 614.216V606.526C211.441 604.056 212.382 601.942 214.263 600.187C216.145 598.431 218.402 597.551 221.036 597.547H253.029C253.873 597.547 254.578 597.814 255.144 598.347C255.715 598.881 256 599.542 256 600.331C256 601.12 255.715 601.779 255.144 602.309C254.574 602.839 253.869 603.104 253.029 603.104H221.042C219.973 603.104 219.095 603.424 218.41 604.065C217.725 604.706 217.382 605.524 217.382 606.521V614.216C217.382 615.005 217.097 615.666 216.527 616.2C215.956 616.733 215.249 616.998 214.406 616.994M172.824 587.718C168.696 587.718 165.191 586.366 162.308 583.662C159.416 580.969 157.971 577.691 157.971 573.827V562.715C157.971 561.444 158.43 560.379 159.349 559.52C160.268 558.661 161.409 558.229 162.771 558.225H248.229C249.591 558.225 250.732 558.655 251.651 559.514C252.57 560.374 253.029 561.441 253.029 562.715V573.827C253.029 577.687 251.584 580.965 248.692 583.662C245.809 586.366 242.304 587.718 238.176 587.718H172.824ZM160.941 548.396C160.098 548.396 159.393 548.129 158.826 547.596C158.256 547.063 157.971 546.403 157.971 545.618C157.971 544.829 158.256 544.168 158.826 543.634C159.397 543.101 160.102 542.836 160.941 542.84H190.647V540.49C190.647 539.219 191.103 538.154 192.014 537.295C192.925 536.435 194.087 536.004 195.501 536H215.499C216.917 536 218.079 536.432 218.986 537.295C219.894 538.158 220.349 539.223 220.353 540.49V542.84H250.059C250.902 542.84 251.608 543.107 252.174 543.64C252.74 544.173 253.025 544.835 253.029 545.624C253.033 546.413 252.748 547.072 252.174 547.602C251.6 548.131 250.895 548.396 250.059 548.396H160.941Z" fill="#E0A569"/>
<path d="M196.588 617C195.745 617 195.038 616.731 194.467 616.194C193.897 615.657 193.614 615 193.618 614.222V606.532C193.618 605.532 193.275 604.711 192.59 604.07C191.905 603.43 191.029 603.109 189.964 603.109H157.971C157.127 603.109 156.422 602.842 155.856 602.309C155.289 601.776 155.004 601.114 155 600.325C154.996 599.536 155.281 598.877 155.856 598.347C156.43 597.818 157.135 597.553 157.971 597.553H189.964C192.602 597.553 194.859 598.433 196.737 600.192C198.614 601.952 199.555 604.063 199.559 606.526V614.222C199.559 615.011 199.274 615.672 198.703 616.205C198.133 616.739 197.426 617.004 196.582 617M214.406 617C213.562 617 212.857 616.735 212.291 616.205C211.724 615.676 211.441 615.013 211.441 614.216V606.526C211.441 604.056 212.382 601.942 214.263 600.187C216.145 598.431 218.402 597.551 221.036 597.547H253.029C253.873 597.547 254.578 597.814 255.144 598.347C255.715 598.881 256 599.542 256 600.331C256 601.12 255.715 601.779 255.144 602.309C254.574 602.839 253.869 603.104 253.029 603.104H221.042C219.973 603.104 219.095 603.424 218.41 604.065C217.725 604.706 217.382 605.524 217.382 606.521V614.216C217.382 615.005 217.097 615.666 216.527 616.2C215.956 616.733 215.249 616.998 214.406 616.994M172.824 587.718C168.696 587.718 165.191 586.366 162.308 583.662C159.416 580.969 157.971 577.691 157.971 573.827V562.715C157.971 561.444 158.43 560.379 159.349 559.52C160.268 558.661 161.409 558.229 162.771 558.225H248.229C249.591 558.225 250.732 558.655 251.651 559.514C252.57 560.374 253.029 561.441 253.029 562.715V573.827C253.029 577.687 251.584 580.965 248.692 583.662C245.809 586.366 242.304 587.718 238.176 587.718H172.824ZM160.941 548.396C160.098 548.396 159.393 548.129 158.826 547.596C158.256 547.063 157.971 546.403 157.971 545.618C157.971 544.829 158.256 544.168 158.826 543.634C159.397 543.101 160.102 542.836 160.941 542.84H190.647V540.49C190.647 539.219 191.103 538.154 192.014 537.295C192.925 536.435 194.087 536.004 195.501 536H215.499C216.917 536 218.079 536.432 218.986 537.295C219.894 538.158 220.349 539.223 220.353 540.49V542.84H250.059C250.902 542.84 251.608 543.107 252.174 543.64C252.74 544.173 253.025 544.835 253.029 545.624C253.033 546.413 252.748 547.072 252.174 547.602C251.6 548.131 250.895 548.396 250.059 548.396H160.941Z" stroke="#73400E" stroke-width="3"/>
<path d="M1297.78 40.8766C1300.2 41.8231 1302.36 43.2824 1304.12 45.1569C1305.88 47.0315 1307.21 49.2842 1308.01 51.7713C1308.77 54.1037 1309.05 56.5958 1308.83 59.1036L1308.78 59.6053L1308.78 59.6067L1300.1 137.093L1299.91 138.831L1301.61 139.256C1310.25 141.423 1317.68 146.619 1322.6 153.928C1327.36 161.009 1329.49 169.659 1328.62 178.453L1328.53 179.305L1324.11 215.681L1324.11 215.682C1323.88 217.541 1322.93 219.296 1321.44 220.542C1320.04 221.713 1318.32 222.325 1316.61 222.295L1316.27 222.28L1316.27 222.28C1315.37 222.219 1314.51 221.98 1313.73 221.582C1312.95 221.185 1312.27 220.635 1311.72 219.962C1311.18 219.29 1310.77 218.504 1310.53 217.647C1310.32 216.897 1310.24 216.103 1310.3 215.3L1310.33 214.955L1310.33 214.954L1314.75 178.588L1314.75 178.587C1315.38 173.421 1314.38 168.253 1311.88 163.822C1309.37 159.39 1305.49 155.938 1300.79 153.959L1298.33 152.919L1298.03 155.579L1297.21 162.887L1297.2 163L1297.2 163.114L1297.33 216.325C1297.3 218.153 1296.55 219.963 1295.23 221.348C1293.9 222.737 1292.12 223.56 1290.29 223.664C1288.47 223.769 1286.76 223.153 1285.49 221.983C1284.23 220.818 1283.49 219.164 1283.44 217.352L1283.32 164.13L1283.32 164.015L1283.3 163.899L1282.44 156.681L1282.1 153.766L1279.51 155.157C1274.88 157.647 1271.07 161.494 1268.62 166.155C1266.24 170.671 1265.25 175.744 1265.79 180.702L1265.85 181.182L1270.44 216.989L1270.44 216.99C1270.63 218.783 1270.11 220.649 1268.95 222.174C1267.8 223.699 1266.12 224.731 1264.31 225.062C1262.49 225.393 1260.7 224.999 1259.29 224.008C1257.88 223.02 1256.94 221.493 1256.67 219.728L1252.08 183.906L1252.08 183.907C1250.93 174.968 1252.99 165.711 1257.91 157.77C1262.84 149.829 1270.3 143.736 1278.99 140.56L1280.47 140.016L1280.29 138.446L1271.23 61.9766L1271.23 61.9752L1271.18 61.4821C1270.95 59.0073 1271.22 56.4741 1271.97 54.0306C1272.77 51.4245 1274.11 48.9829 1275.89 46.8689C1277.67 44.7548 1279.86 43.0204 1282.31 41.7797C1284.75 40.5391 1287.4 39.8218 1290.07 39.6688C1292.73 39.5157 1295.36 39.9298 1297.78 40.8766Z" fill="#E0A569" stroke="#73400E" stroke-width="4"/>
<path d="M1222.24 167.382C1222.34 195.228 1202.75 220.265 1177.74 220.828C1153.21 221.38 1133.71 198.08 1133.01 170.806L1132.99 169.505L1132.99 169.504C1132.92 150.864 1141.59 129.15 1154.74 116.572L1154.74 116.572C1155.88 115.487 1157.07 114.455 1158.3 113.482L1159.64 112.426L1159.63 110.72L1159.42 53.2916C1159.47 48.6255 1161.35 44.1133 1164.67 40.7407C1168 37.3585 1172.5 35.4126 1177.18 35.309C1181.86 35.2055 1186.33 36.9489 1189.65 40.1429C1192.96 43.337 1194.87 47.7426 1194.94 52.416L1194.94 52.416L1195.16 109.794L1195.16 111.551L1196.58 112.595C1197.5 113.279 1198.4 113.997 1199.27 114.746L1200.14 115.507C1213.33 127.464 1222.17 148.746 1222.24 167.382L1222.24 167.382ZM1164.29 207.235C1163.66 205.481 1163.1 203.702 1162.61 201.902L1162.41 201.129L1162.41 201.125C1159.65 190.546 1158.53 177.632 1158.49 168.157C1158.46 158.992 1159.41 144.571 1161.88 132.053L1162.13 130.847L1162.13 130.845C1162.74 127.86 1163.47 124.92 1164.3 122.185L1168.11 109.746L1158.58 118.594L1157.61 119.492L1157.59 119.511L1157.57 119.529C1145.39 131.183 1137.13 151.691 1137.19 169.266C1137.26 187.697 1146.29 203.551 1159.17 211.407L1167.64 216.571L1164.29 207.235ZM1178.32 216.579C1180.1 216.371 1181.89 215.246 1183.69 212.679L1184.07 212.106L1184.07 212.105C1186.05 209.035 1187.69 204.649 1188.98 199.501C1191.39 189.885 1192.41 178.209 1192.51 169.176L1192.52 167.406L1192.51 167.404C1192.48 158.167 1191.37 143.45 1188.71 131.139C1187.45 125.338 1185.88 120.207 1183.98 116.435L1183.6 115.699L1183.6 115.697C1182.59 113.822 1181.53 112.439 1180.48 111.534L1180.48 111.533C1180.02 111.124 1179.5 110.793 1178.94 110.551L1178.7 110.448L1178.45 110.382L1178.3 110.343L1177.38 110.1L1176.46 110.359L1176.32 110.399L1176.03 110.48L1175.76 110.607C1175.24 110.854 1174.77 111.177 1174.34 111.563L1174.34 111.562C1174.34 111.565 1174.34 111.567 1174.34 111.57C1174.31 111.593 1174.28 111.616 1174.26 111.64L1174.26 111.641C1173.24 112.578 1172.21 113.995 1171.22 115.887L1171.22 115.887C1169.32 119.54 1167.74 124.592 1166.48 130.347L1166.23 131.507L1166.23 131.51C1163.82 143.165 1162.8 156.863 1162.7 166.144L1162.7 167.939L1162.7 167.941C1162.73 177.175 1163.83 189.729 1166.48 199.883L1166.48 199.883C1167.8 204.953 1169.47 209.304 1171.5 212.316L1171.5 212.316C1173.57 215.388 1175.71 216.659 1177.86 216.612L1177.9 216.611L1177.94 216.609L1178.32 216.579ZM1196.44 210.6C1208.99 202.347 1217.82 186.533 1218.03 168.472L1218.04 167.61L1218.04 167.609C1217.96 150.029 1209.55 129.843 1197.23 118.687L1197.21 118.668L1197.19 118.649L1196.21 117.795L1186.76 109.497L1190.57 121.485C1191.43 124.178 1192.17 127.083 1192.81 130.047C1195.56 142.707 1196.68 157.721 1196.72 167.18C1196.75 176.355 1195.8 188.816 1193.3 199.319L1193.05 200.329L1193.05 200.333C1192.53 202.423 1191.92 204.491 1191.21 206.53L1187.85 216.256L1196.44 210.6Z" fill="#73400E" stroke="#E0A569" stroke-width="7"/>
</g>
<defs>
<clipPath id="clip0_104_117">
<rect width="1368" height="667" fill="white"/>
</clipPath>
</defs>
</svg>
