<svg width="1368" height="667" viewBox="0 0 1368 667" fill="none" xmlns="http://www.w3.org/2000/svg">
<rect width="1368" height="667" fill="#FDFFFC"/>
<rect x="1083.5" y="23.5" width="227" height="31" rx="6.04793" fill="#E9DB7D" stroke="#73400E" stroke-width="5"/>
<path d="M1267.93 218.505C1255.58 230.551 1235.54 230.569 1223.17 218.546C1212.98 208.633 1207.19 194.8 1205.94 181.507C1204.7 168.316 1207.87 154.569 1217.11 145.553C1220.88 141.875 1225.61 139.123 1230.89 137.675L1230.81 55.7707C1230.81 48.0434 1237.14 41.7441 1245.02 41.5421L1245.4 41.5377C1253.46 41.5303 1260 47.8942 1260.01 55.744L1260.01 55.7454L1260.07 137.668C1265.36 139.106 1270.09 141.849 1273.87 145.519C1283.11 154.51 1286.3 168.248 1285.09 181.438C1283.86 194.73 1278.1 208.573 1267.93 218.505Z" fill="#E0A569" stroke="#73400E" stroke-width="11.9671"/>
<path d="M1175.06 228.29L1167.7 229.431C1155.35 231.327 1142.78 231.318 1130.44 229.404L1123.09 228.259C1115.4 227.07 1109.76 220.6 1109.78 213.015L1109.94 163.484C1109.95 160.93 1110.61 158.418 1111.86 156.171C1113.11 153.924 1114.91 152.012 1117.1 150.607L1130.92 141.762C1133.11 140.357 1134.91 138.445 1136.16 136.198C1137.41 133.951 1138.07 131.439 1138.08 128.885L1138.32 57.025C1138.23 52.639 1139.14 43.8734 1149.83 43.8843C1159.52 43.8832 1161.08 52.6513 1160.96 57.0371L1160.72 128.897C1160.72 131.448 1161.36 133.959 1162.6 136.207C1163.83 138.454 1165.62 140.368 1167.8 141.777L1181.55 150.651C1183.73 152.062 1185.52 153.976 1186.75 156.224C1187.99 158.471 1188.63 160.981 1188.63 163.532L1188.47 213.068C1188.45 216.741 1187.09 220.29 1184.64 223.081C1182.18 225.872 1178.79 227.723 1175.06 228.301M1138.51 173.16L1138.44 196.725L1138.51 173.16ZM1159.23 173.181L1159.16 196.741L1159.23 173.181Z" fill="#E0A569"/>
<path d="M1175.06 228.29L1167.7 229.431C1155.35 231.327 1142.78 231.318 1130.44 229.404L1123.09 228.259C1115.4 227.07 1109.76 220.6 1109.78 213.015L1109.94 163.484C1109.95 160.93 1110.61 158.418 1111.86 156.171C1113.11 153.924 1114.91 152.012 1117.1 150.607L1130.92 141.762C1133.11 140.357 1134.91 138.445 1136.16 136.198C1137.41 133.951 1138.07 131.439 1138.08 128.885L1138.32 57.025C1138.23 52.639 1139.14 43.8734 1149.83 43.8843C1159.52 43.8832 1161.08 52.6513 1160.96 57.0371L1160.72 128.897C1160.72 131.448 1161.36 133.959 1162.6 136.207C1163.83 138.454 1165.62 140.368 1167.8 141.777L1181.55 150.651C1183.73 152.062 1185.52 153.976 1186.75 156.224C1187.99 158.471 1188.63 160.981 1188.63 163.532L1188.47 213.068C1188.45 216.741 1187.09 220.29 1184.64 223.081C1182.18 225.872 1178.79 227.723 1175.06 228.301M1138.51 173.16L1138.44 196.725M1159.23 173.181L1159.16 196.741" stroke="#73400E" stroke-width="13.1441" stroke-linecap="round" stroke-linejoin="round"/>
</svg>
