<svg width="2600" height="2921" viewBox="0 0 2600 2921" fill="none" xmlns="http://www.w3.org/2000/svg">
<path d="M87.6758 2680.3C384.629 2660.57 693.202 2616.47 989.273 2665.15C1146.14 2690.94 1285.06 2777.12 1446.13 2784.86C1542.72 2789.49 1628.78 2748.43 1721.16 2728.03C1841.73 2701.41 1964.47 2689.07 2087.1 2677.27C2164.05 2669.86 2264.85 2648.62 2340.91 2673.48C2359.77 2679.65 2457.67 2706.65 2467.44 2687.12" stroke="#ED1B24" stroke-width="34" stroke-linecap="round"/>
<path d="M2371.7 2830.66C2376.52 2771.94 2394.09 2714.2 2405.92 2656.6C2432.2 2528.64 2453.12 2399.26 2474.35 2270.45C2513.08 2035.46 2551.02 1803.14 2573.2 1566.16C2578.04 1514.45 2586.32 1464.17 2579.66 1412.22C2571.31 1347.06 2535.81 1291.52 2511.23 1231.21C2449.81 1080.5 2390.12 936.126 2351.17 778.507C2319.87 651.82 2308.49 524.968 2327.22 395.283C2334.49 344.929 2355.89 315.399 2377.02 270.223C2389.3 243.991 2374.53 184.656 2412.76 184.656" stroke="#ED1B24" stroke-width="34" stroke-linecap="round"/>
<path d="M87.6758 225.534C253.324 146.81 417.094 62.1954 600.601 35.7439C672.683 25.3537 743.391 30.9075 815.772 34.6075C913.716 39.6142 1012.39 37.8282 1110.12 45.9721C1219.36 55.0761 1330.13 83.5626 1437.04 108.099C1533.7 130.284 1626.58 170.725 1727.98 162.649C1797.61 157.104 1872.01 138.177 1940.12 122.873C2018.4 105.28 2097.14 72.5218 2178.02 69.0803C2236.52 66.5907 2298.63 64.7643 2356.06 77.0356C2398.63 86.1309 2443.98 102.795 2487.89 102.795" stroke="#ED1B24" stroke-width="34" stroke-linecap="round"/>
<path d="M203.595 34.6094C89.4478 387.427 -20.5247 766.057 29.3363 1140.77C50.5963 1300.54 63.4264 1452.24 128.588 1600.66C174.378 1704.96 244.507 1807.06 244.507 1924.17C244.507 2016.81 210.135 2101.58 186.548 2190.49C173.539 2239.52 156.039 2290.86 139.195 2338.98C128.537 2369.44 139.292 2428.6 142.604 2461.72C144.485 2480.53 159.532 2528.72 176.319 2537.11" stroke="#ED1B24" stroke-width="34" stroke-linecap="round"/>
<path d="M2461.65 2575.76C2453.38 2654.01 2437.37 2731.08 2424.15 2808.61C2363.12 2823.67 2302.68 2836.97 2239.07 2836.97C2063.7 2836.97 1892.23 2773.01 1717.58 2770.74C1553.72 2768.62 1391.76 2783.21 1228.28 2786.84C1130.35 2789.02 1028.53 2795.58 933.044 2771.2C851.475 2750.38 763.287 2768.16 680.576 2770.28C571.479 2773.08 463.436 2754.19 354.068 2754.19C311.887 2754.19 251.075 2751.91 218.407 2719.24C200.693 2701.53 197.86 2659.82 191.735 2636.46C172.603 2563.52 183.457 2479.9 183.457 2405.15V2095.2C183.457 1897.18 162.313 1708.56 140.33 1512.45L139.309 1503.34C123.871 1365.59 155.823 1239.89 166.902 1104.18C187.034 857.557 142.455 605.807 117.236 361.03C114.148 331.056 65.172 130.175 123.674 130.175C206.879 130.175 300.676 133.513 382.12 151.329C532.726 184.274 666.315 126.504 810.719 88.7869C1023.01 33.3368 1240.79 -17.4163 1456.84 47.3987C1521.43 66.7783 1587.88 91.525 1655.04 100.744C1802.88 121.035 1959.13 103.19 2108.01 105.802C2169.49 106.881 2231.1 108.987 2292.42 113.62C2311.39 115.053 2345.39 114.65 2363.7 126.496C2379.8 136.913 2388.29 156.487 2395.43 173.403C2419.01 229.298 2432.79 297.47 2424.86 358.27C2421.58 383.419 2406.22 404.889 2403.71 430.01C2396.61 500.998 2418.82 582.126 2426.7 652.127C2447.62 838.087 2454.07 1011.2 2435.44 1197.53C2422.61 1325.82 2419.33 1461.76 2428.54 1590.72C2434.29 1671.17 2458.95 1750.24 2459.81 1830.77C2461.42 1982.36 2461.58 2133.55 2466.25 2285.12C2469.21 2381.52 2471.8 2479.7 2461.65 2575.76Z" fill="#FFDDDF"/>
<path d="M2410.14 2903.19C2423.13 2793.35 2450.03 2685.72 2461.65 2575.76C2471.8 2479.7 2469.21 2381.52 2466.25 2285.12C2461.58 2133.55 2461.42 1982.36 2459.81 1830.77C2458.95 1750.24 2434.29 1671.17 2428.54 1590.72C2419.33 1461.76 2422.61 1325.82 2435.44 1197.53C2454.07 1011.2 2447.62 838.087 2426.7 652.127C2418.82 582.126 2396.61 500.998 2403.71 430.01C2406.22 404.889 2421.58 383.419 2424.86 358.27C2432.79 297.47 2419.01 229.298 2395.43 173.403C2388.29 156.487 2379.8 136.913 2363.7 126.496C2345.39 114.65 2311.39 115.053 2292.42 113.62C2231.1 108.987 2169.49 106.881 2108.01 105.802C1959.13 103.19 1802.88 121.035 1655.04 100.744C1587.88 91.525 1521.43 66.7783 1456.84 47.3987C1240.79 -17.4163 1023.01 33.3368 810.719 88.7869C666.315 126.504 532.726 184.274 382.12 151.329C300.676 133.513 206.879 130.175 123.674 130.175C65.172 130.175 114.148 331.056 117.236 361.03C142.455 605.807 187.034 857.557 166.902 1104.18C155.823 1239.89 123.871 1365.59 139.309 1503.34C161.653 1702.72 183.457 1894.12 183.457 2095.2C183.457 2198.51 183.457 2301.83 183.457 2405.15C183.457 2479.9 172.603 2563.52 191.735 2636.46C197.86 2659.82 200.693 2701.53 218.407 2719.24C251.075 2751.91 311.887 2754.19 354.068 2754.19C463.436 2754.19 571.479 2773.08 680.576 2770.28C763.287 2768.16 851.475 2750.38 933.044 2771.2C1028.53 2795.58 1130.35 2789.02 1228.28 2786.84C1391.76 2783.21 1553.72 2768.62 1717.58 2770.74C1892.23 2773.01 2063.7 2836.97 2239.07 2836.97C2309.31 2836.97 2375.68 2820.75 2443.25 2803.86" stroke="#0053A3" stroke-width="34" stroke-linecap="round"/>
<g clip-path="url(#clip0_119_57)">
<path d="M1489.49 1755.68C1473.53 1753.76 1457.89 1753.44 1442.73 1754.23C1423.99 1749.53 1379.71 1741.21 1359.94 1738.83C1163.05 1715.16 981.917 1768.27 950.846 2026.69C925.601 2236.66 1068.93 2426.57 1299.61 2454.3C1530.28 2482.04 1737.73 2334.31 1762.98 2124.34C1794.38 1862.94 1584.67 1767.13 1489.49 1755.68Z" fill="#ED1B24"/>
<path d="M1177.57 1594.35C1211.04 1636.94 1235.61 1654.74 1239.93 1717.59C1242.49 1754.77 1288.37 1759.01 1288.37 1759.01C1288.37 1759.01 1192.75 1789.07 1150.13 1822.54C1150.13 1822.54 1268.8 1798.22 1306.84 1802.79C1306.84 1802.79 1378.32 1849.97 1373.75 1887.99C1373.75 1887.99 1382.9 1811.93 1344.88 1807.36C1344.88 1807.36 1458.95 1821.08 1449.81 1897.13C1449.81 1897.13 1463.52 1783.04 1425.48 1778.47C1425.48 1778.47 1544.17 1754.17 1577.64 1796.76C1577.64 1796.76 1543.27 1752.08 1468.09 1745.02C1468.09 1745.02 1510.73 1711.56 1586.78 1720.71C1586.78 1720.71 1468.13 1670.82 1420.94 1742.32C1420.94 1742.32 1392.63 1706.27 1464.73 1649.64C1464.73 1649.64 1363.17 1655.23 1354.02 1731.31C1354.02 1731.31 1318.07 1726.04 1296.1 1694.67C1253.04 1633.1 1177.57 1594.35 1177.57 1594.35Z" fill="#548043"/>
<path d="M1262.11 2077.73C1259.42 2064.35 1256.8 2051 1250.95 2038.25C1244.81 2024.88 1237.63 2012.39 1227.61 2001.87C1215.55 1989.16 1200.28 1981.26 1183.45 1976.53C1165.1 1971.37 1147.66 1972.31 1131.22 1983.4C1125.44 1987.31 1120.57 1992.2 1114.96 1996.16C1104.6 2003.47 1101.44 2014.39 1099.01 2025.75C1097.37 2033.39 1097.61 2041.21 1097.68 2049.35C1096.05 2052.44 1097.33 2055.73 1097.91 2059.13C1099.15 2066.59 1103.3 2073.46 1103.98 2080.59C1104.89 2090.16 1111.53 2095.85 1115.85 2102.83C1119.2 2108.32 1126.14 2111.58 1131.43 2115.87C1137.52 2120.81 1144.89 2123.46 1151.69 2127.13C1165.05 2134.34 1178.84 2140.76 1194.13 2142.8C1206.12 2144.43 1218.12 2146.65 1230.27 2145.71C1240.83 2144.93 1249.93 2140.85 1256.45 2131.9C1260.13 2126.86 1260.98 2121.08 1262.45 2115.25C1265.59 2102.57 1264.58 2090.1 1262.11 2077.73ZM1222.73 2035.76C1206.74 2027.14 1190.28 2035.47 1182.37 2049.32C1175.49 2061.37 1176.89 2074.54 1178.12 2087.69C1179.29 2100.28 1184.66 2110.78 1193.01 2119.97C1193.7 2120.75 1194.34 2121.33 1193.45 2122.35C1192.83 2123.09 1192.16 2122.82 1191.4 2122.51C1183.7 2119.24 1176.16 2115.47 1168.26 2112.84C1154.68 2108.3 1144.78 2098.31 1133.56 2090.34C1129.45 2087.41 1127.03 2082.7 1124.95 2077.61C1121.46 2069.15 1117.75 2060.8 1116.98 2051.66C1115.72 2036.99 1116.28 2021.32 1127.72 2011.42C1139.27 2001.42 1152.81 1991.57 1170.46 1996.42C1176.55 1998.09 1182.95 1996.72 1189.11 1999.08C1196.23 2001.82 1202.41 2005.87 1207.76 2010.96C1216.64 2019.33 1223.42 2029.51 1230.03 2040.06C1227.61 2038.63 1225.23 2037.1 1222.73 2035.76Z" fill="black"/>
<path d="M1230.02 2040.06C1227.6 2038.63 1225.22 2037.1 1222.73 2035.76C1206.74 2027.14 1190.27 2035.47 1182.37 2049.32C1175.49 2061.37 1176.89 2074.54 1178.11 2087.68C1179.29 2100.28 1184.65 2110.78 1193.01 2119.97C1193.69 2120.75 1194.33 2121.33 1193.44 2122.35C1192.82 2123.09 1192.16 2122.82 1191.39 2122.5C1183.7 2119.24 1176.15 2115.47 1168.26 2112.84C1154.68 2108.3 1144.78 2098.31 1133.56 2090.34C1129.45 2087.4 1127.03 2082.7 1124.94 2077.61C1121.45 2069.14 1117.75 2060.8 1116.98 2051.66C1115.72 2036.99 1116.28 2021.32 1127.72 2011.42C1139.27 2001.42 1152.8 1991.57 1170.45 1996.42C1176.54 1998.09 1182.94 1996.72 1189.1 1999.08C1196.23 2001.82 1202.4 2005.87 1207.76 2010.95C1216.63 2019.33 1223.41 2029.52 1230.02 2040.06Z" fill="white"/>
<path d="M1612.25 2047.71C1610.52 2041.86 1605.56 2039.13 1602.42 2034.7C1595.01 2024.25 1586.01 2016.1 1573.93 2010.64C1560.3 2004.51 1546.53 2005.37 1532.91 2007.58C1522.62 2009.25 1512.45 2012.54 1502.91 2017.59C1490.8 2023.98 1481.18 2033.19 1472.73 2043.3C1465.59 2051.85 1458.67 2060.96 1454.54 2071.72C1450.99 2080.97 1446.48 2089.8 1443.32 2099.26C1439.72 2110.17 1438.66 2121.17 1438.76 2132.42C1438.82 2139.53 1440.6 2146.32 1445.19 2151.92C1455.2 2164.02 1469.71 2166.33 1483.75 2166.98C1496.12 2167.55 1508.5 2169.01 1521.27 2166.26C1537.03 2162.86 1552.43 2158.61 1567.39 2152.79C1574.04 2150.23 1581.51 2147.41 1586.11 2142.42C1591.82 2136.27 1597.6 2130.08 1601.99 2122.14C1610.03 2107.65 1614.43 2092.92 1615.3 2081C1616.71 2064.23 1615.73 2059.55 1612.25 2047.71ZM1588.17 2105.72C1581.33 2118.11 1572 2127.18 1558.74 2133.64C1542.42 2141.6 1525.02 2143.99 1507.94 2148.23C1507.03 2148.45 1506.08 2148.95 1505.43 2147.82C1504.54 2146.22 1506.05 2145.92 1506.87 2145.3C1526.7 2130.01 1532.72 2108.32 1531.45 2085.17C1530.51 2067.91 1513.48 2050.43 1492.03 2057.47C1489.57 2058.28 1487.36 2060.18 1483.6 2060.24C1494.74 2049.45 1504.91 2039.08 1518.01 2032.44C1525.72 2028.53 1533.74 2025.73 1542.69 2027.73C1550.05 2029.38 1557.59 2027.29 1565.16 2030.44C1572.67 2033.55 1578.15 2038.72 1583.7 2043.89C1586.52 2046.57 1590.11 2048.45 1592.1 2052.57C1594.4 2057.19 1595.26 2061.69 1595.84 2066.6C1597.51 2080.52 1594.85 2093.55 1588.17 2105.72Z" fill="black"/>
<path d="M1588.17 2105.72C1581.32 2118.12 1572 2127.18 1558.74 2133.64C1542.42 2141.61 1525.02 2143.99 1507.94 2148.23C1507.02 2148.46 1506.08 2148.95 1505.43 2147.83C1504.54 2146.23 1506.05 2145.92 1506.87 2145.3C1526.7 2130.01 1532.72 2108.33 1531.45 2085.18C1530.51 2067.91 1513.48 2050.44 1492.03 2057.48C1489.57 2058.29 1487.36 2060.18 1483.6 2060.25C1494.74 2049.46 1504.91 2039.09 1518.01 2032.44C1525.72 2028.54 1533.74 2025.73 1542.69 2027.74C1550.05 2029.39 1557.59 2027.29 1565.16 2030.45C1572.67 2033.56 1578.15 2038.72 1583.7 2043.89C1586.52 2046.57 1590.11 2048.45 1592.1 2052.57C1594.4 2057.2 1595.26 2061.69 1595.84 2066.61C1597.51 2080.52 1594.85 2093.55 1588.17 2105.72Z" fill="white"/>
<path d="M1516.55 1975.2C1497.33 1980.68 1478.5 1986.24 1465.74 2003.47C1462.91 2007.3 1460.62 2010.78 1463.68 2014.58C1466.93 2018.61 1471.21 2017.43 1475.55 2015.04C1481.74 2011.65 1486.59 2006.53 1492.78 2003.03C1506.92 1995.05 1521.54 1990.4 1538.07 1992.16C1545.49 1993.76 1553.18 1992.21 1560.84 1992.78C1564.98 1993.09 1568.2 1990.84 1568.99 1986.3C1569.75 1981.93 1566.92 1979.38 1563.51 1978.67C1548.05 1975.43 1532.78 1970.58 1516.55 1975.2Z" fill="black"/>
<path d="M1167.35 1945.4C1163.85 1945.48 1160.72 1947.63 1160.75 1952.06C1160.77 1956.4 1163.41 1959.2 1167.21 1959.65C1174.84 1960.57 1182.14 1963.38 1191.38 1963.32C1210.84 1965.4 1227.54 1975.27 1241.06 1991.05C1243.65 1994.07 1246.38 1996.96 1249.73 1999.19C1252.74 2001.2 1255.99 2001.37 1258.87 1999.38C1261.77 1997.38 1262.33 1993.52 1260.91 1991.05C1258.42 1986.74 1257.09 1981.56 1253.83 1977.99C1240.01 1962.87 1222.87 1952.68 1203.39 1946.7C1191.63 1943.09 1179.38 1945.12 1167.35 1945.4Z" fill="black"/>
<path d="M1402.27 2153.51L1301.46 2146.36L1334.34 2233.74L1402.27 2153.51Z" fill="black" stroke="black" stroke-width="0.460328"/>
<path d="M1071.79 2222.02C1088.03 2208.25 1102.24 2192.34 1119.63 2179.89C1121.88 2178.28 1125.85 2176.03 1127.13 2173.47" stroke="#F1D301" stroke-width="13.8098" stroke-linecap="round"/>
<path d="M1107.23 2238.53C1121.16 2224.81 1136.07 2211.29 1152.05 2199.99C1154.51 2198.25 1158.56 2196.41 1160.14 2193.65C1160.94 2192.25 1162.9 2190.62 1164.03 2189.49" stroke="#F1D301" stroke-width="13.8098" stroke-linecap="round"/>
<path d="M1516 2260.23C1532.25 2246.46 1546.46 2230.55 1563.85 2218.1C1566.1 2216.49 1570.07 2214.24 1571.35 2211.68" stroke="#F1D301" stroke-width="13.8098" stroke-linecap="round"/>
<path d="M1551.44 2276.73C1565.38 2263.02 1580.28 2249.5 1596.27 2238.19C1598.73 2236.45 1602.78 2234.62 1604.36 2231.86C1605.16 2230.46 1607.12 2228.83 1608.24 2227.7" stroke="#F1D301" stroke-width="13.8098" stroke-linecap="round"/>
</g>
<path d="M334.055 367.465C370.523 510.184 402.066 654.533 446.704 795.595C454.896 821.484 451.032 856.325 464.49 879.413" stroke="#ED1B24" stroke-width="28.4783" stroke-linecap="round"/>
<path d="M326.148 437.757C377.836 409.124 494.825 367.636 540.906 424.949C600.426 498.977 505.662 597.556 441.213 640.804C430.66 647.885 382.756 665.203 414.862 670.94C530.422 691.591 631.895 749.124 745.124 773.405" stroke="#ED1B24" stroke-width="28.4783" stroke-linecap="round"/>
<path d="M982.635 694.784C929.624 718.103 813.043 739.84 766.56 695.538C684.537 617.364 657.548 457.407 809.16 428.451C843.987 421.799 906.079 416.734 936.522 438.622C957.827 453.941 939.949 485.691 928.616 500.779C898.012 541.523 856.066 562.559 800.816 562.559" stroke="#ED1B24" stroke-width="28.4783" stroke-linecap="round"/>
<path d="M1203.54 422.746C1105.41 422.746 1095.16 514.501 1125.14 575.878C1140.14 606.573 1160.09 635.972 1202.22 636.34C1234.75 636.625 1263.05 627.267 1294.45 622.779" stroke="#ED1B24" stroke-width="28.4783" stroke-linecap="round"/>
<path d="M1432.7 422.566C1421.35 486.312 1417.34 551.163 1399.32 612.993C1390.75 642.411 1397.67 664.58 1401.08 693.797" stroke="#ED1B24" stroke-width="28.4783" stroke-linecap="round"/>
<path d="M1464.32 256.437C1451.37 256.437 1470 250.033 1474.2 250.033C1483.57 250.033 1481.61 255.021 1472.22 249.656" stroke="#ED1B24" stroke-width="28.4783" stroke-linecap="round"/>
<path d="M1535.47 507.326C1584.56 468.354 1638.42 438.336 1707.41 458.542C1791.16 483.071 1822.64 550.791 1801.61 622.222C1785.46 677.06 1727.82 746.527 1663.49 691.348C1621.4 655.242 1596.42 607.182 1576.97 559.688C1571.05 545.236 1568.93 529.327 1560.94 515.613C1558.36 511.185 1559.18 515.023 1559.18 519.004C1559.18 565.289 1552.69 611.504 1546.89 657.444C1538.25 725.877 1527.56 793.341 1527.56 862.186C1527.56 875.974 1523.93 887.319 1535.47 897.22" stroke="#ED1B24" stroke-width="28.4783" stroke-linecap="round"/>
<path d="M2118.53 818.848C2057.98 801.534 2024.52 759.662 1994.69 712.616C1953.3 647.353 1922.71 576.429 1939.35 501.659C1949.23 457.275 1978.68 434.069 2031.14 425.94C2053.9 422.412 2081.98 420.453 2104.26 427.447C2137.87 437.993 2143.73 478.24 2148.84 503.919C2156.97 544.775 2162.9 595.824 2107.56 612.411C2074.87 622.208 2042.08 616.033 2008.74 615.425C1974.33 614.797 1942.86 621.452 1909.05 625.596" stroke="#ED1B24" stroke-width="28.4783" stroke-linecap="round"/>
<path d="M615.688 952.125C647.893 1092.73 673.269 1236.49 713.828 1375.65C718.979 1393.32 726.804 1410.47 729.53 1428.59C732.559 1448.72 737.756 1471.64 745.233 1490.88" stroke="#548043" stroke-width="28.4783" stroke-linecap="round"/>
<path d="M572.507 1090.18C652.26 1030.99 747.329 972.703 857.767 972.703C910.906 972.703 862.845 1066.32 853.406 1085.32C836.307 1119.72 810.134 1138.32 784.926 1165.94C784.671 1166.22 772.711 1182.97 777.511 1182.97C781.131 1182.97 787.987 1179.99 791.25 1179.6C819.588 1176.2 849.453 1178.93 877.395 1183.34C926.838 1191.15 962.203 1208.62 962.886 1256.3C964.424 1363.59 823.229 1410.06 721.025 1426.53C662.458 1435.97 603.84 1435.88 545.027 1430.27" stroke="#548043" stroke-width="28.4783" stroke-linecap="round"/>
<path d="M996.474 952.126C997.75 1039.66 1005.04 1126.86 1033.55 1211.4C1045.55 1246.99 1061.41 1282.31 1081.31 1315.23C1088.25 1326.71 1096.32 1341.03 1110.75 1347.21C1126.12 1353.8 1167.76 1357.96 1182.29 1347.21C1200.58 1333.68 1198.83 1292.07 1199.73 1277.25C1203.91 1208.85 1204.15 1138.37 1193.63 1070.35C1181.62 992.713 1141.89 917.555 1053.61 884.782C1034.51 877.689 1011.55 874.039 999.527 891.142C978.804 920.634 977.856 964.394 992.548 995.9" stroke="#548043" stroke-width="28.4783" stroke-linecap="round"/>
<path d="M1482.92 1020.05C1468.11 1029.38 1455.37 1042.67 1445.62 1055.92C1434.42 1071.13 1427.01 1086.37 1419.53 1103.27C1403.46 1139.6 1389.55 1176.98 1377.38 1214.41C1369.23 1239.46 1360.89 1266.02 1367.57 1292.08C1375.25 1322.03 1391.58 1350.51 1416.84 1372.34C1431.7 1385.19 1450.95 1399.82 1472.35 1403.41C1491.31 1406.6 1512.52 1407.35 1531.54 1404.06C1557.13 1399.62 1583.5 1393.48 1608.18 1386.21C1634.02 1378.61 1645.17 1364.64 1655.4 1343.31C1670.13 1312.57 1675.26 1279.96 1679.54 1247.14C1685.35 1202.69 1692.54 1155.66 1687.95 1110.85C1682.48 1057.41 1647.74 1018.22 1593.95 992.861C1541.51 968.131 1474.01 988.73 1447.99 1033.36" stroke="#548043" stroke-width="28.4783" stroke-linecap="round"/>
<path d="M1868.58 926.719C1849.55 1060.97 1833.31 1195.48 1814.35 1329.73C1808.66 1370.06 1806.84 1413.5 1791.56 1452.35C1785.66 1467.32 1779.85 1484.03 1779.85 1499.91" stroke="#548043" stroke-width="28.4783" stroke-linecap="round"/>
<path d="M1838.08 1250.18C1903.5 1172.14 1964.68 1088.75 2042.04 1018.69C2051.93 1009.72 2060.92 1001.21 2073.77 995.695" stroke="#548043" stroke-width="28.4783" stroke-linecap="round"/>
<path d="M1835.31 1269.21C1868.41 1324.79 1910.83 1376.56 1948.84 1429.75C1955.69 1439.34 1963.35 1448.16 1971.18 1457.1" stroke="#548043" stroke-width="28.4783" stroke-linecap="round"/>
<defs>
<clipPath id="clip0_119_57">
<rect width="842.556" height="842.556" fill="white" transform="translate(981.727 1568.66) rotate(6.85598)"/>
</clipPath>
</defs>
</svg>
