<svg width="1339" height="1339" viewBox="0 0 1339 1339" fill="none" xmlns="http://www.w3.org/2000/svg">
<g clip-path="url(#clip0_38_227)">
<path d="M868.79 267.097C845.992 264.356 823.66 263.893 802.012 265.027C775.248 258.308 712.007 246.429 683.766 243.033C402.589 209.226 143.912 285.077 99.5393 654.129C63.4859 953.989 268.181 1225.2 597.609 1264.8C927.038 1304.41 1223.3 1093.44 1259.36 793.578C1304.21 420.275 1004.72 283.44 868.79 267.097Z" fill="#ED1B24"/>
<path d="M423.326 36.6914C471.123 97.5138 506.208 122.941 512.383 212.693C516.032 265.784 581.556 271.844 581.556 271.844C581.556 271.844 445 314.777 384.145 362.569C384.145 362.569 553.615 327.836 607.939 334.367C607.939 334.367 710.022 401.75 703.495 456.041C703.495 456.041 716.554 347.426 662.263 340.899C662.263 340.899 825.169 360.486 812.109 469.1C812.109 469.1 831.7 306.162 777.376 299.63C777.376 299.63 946.876 264.934 994.672 325.756C994.672 325.756 945.585 261.951 838.228 251.871C838.228 251.871 899.116 204.082 1007.73 217.142C1007.73 217.142 838.277 145.9 770.89 248.016C770.89 248.016 730.455 196.529 833.43 115.658C833.43 115.658 688.385 123.636 675.322 232.284C675.322 232.284 623.978 224.764 592.604 179.955C531.099 92.0333 423.326 36.6914 423.326 36.6914Z" fill="#548043"/>
<path d="M544.055 727.022C540.219 707.903 536.473 688.842 528.122 670.632C519.356 651.546 509.097 633.704 494.782 618.682C477.56 600.534 455.757 589.252 431.714 582.487C405.511 575.127 380.616 576.461 357.129 592.3C348.878 597.887 341.924 604.874 333.916 610.53C319.109 620.971 314.608 636.559 311.131 652.784C308.789 663.696 309.13 674.858 309.232 686.489C306.902 690.903 308.73 695.603 309.558 700.456C311.324 711.109 317.259 720.917 318.231 731.105C319.523 744.766 329.011 752.889 335.175 762.868C339.965 770.7 349.87 775.364 357.426 781.483C366.126 788.546 376.659 792.331 386.365 797.568C405.45 807.861 425.135 817.027 446.974 819.943C464.093 822.271 481.233 825.442 498.592 824.098C513.665 822.988 526.665 817.155 535.98 804.379C541.229 797.185 542.438 788.927 544.544 780.604C549.033 762.495 547.586 744.685 544.055 727.022ZM487.824 667.083C464.984 654.767 441.472 666.665 430.182 686.448C420.359 703.657 422.355 722.459 424.104 741.235C425.781 759.216 433.448 774.211 445.378 787.337C446.357 788.461 447.267 789.286 445.999 790.742C445.114 791.793 444.163 791.409 443.072 790.962C432.079 786.297 421.304 780.911 410.031 777.157C390.638 770.675 376.503 756.411 360.472 745.024C354.607 740.835 351.147 734.11 348.175 726.842C343.189 714.757 337.897 702.84 336.795 689.787C334.998 668.838 335.799 646.456 352.133 632.314C368.628 618.04 387.957 603.976 413.168 610.899C421.861 613.28 431.004 611.323 439.801 614.702C449.977 618.604 458.795 624.395 466.444 631.656C479.12 643.618 488.803 658.159 498.238 673.218C494.78 671.177 491.39 668.992 487.824 667.083Z" fill="black"/>
<path d="M498.224 673.221C494.771 671.176 491.376 668.991 487.815 667.082C464.975 654.766 441.463 666.664 430.172 686.447C420.349 703.656 422.346 722.458 424.095 741.234C425.771 759.216 433.439 774.21 445.369 787.336C446.347 788.46 447.257 789.285 445.989 790.742C445.105 791.792 444.154 791.408 443.062 790.961C432.07 786.296 421.295 780.91 410.022 777.156C390.629 770.674 376.493 756.41 360.463 745.023C354.598 740.835 351.138 734.109 348.166 726.841C343.18 714.757 337.887 702.839 336.785 689.787C334.988 668.837 335.79 646.456 352.123 632.313C368.619 618.039 387.948 603.975 413.158 610.898C421.852 613.28 430.995 611.323 439.791 614.701C449.968 618.603 458.786 624.394 466.435 631.655C479.11 643.621 488.789 658.162 498.224 673.221Z" fill="white"/>
<path d="M1044.09 684.155C1041.62 675.797 1034.55 671.892 1030.06 665.566C1019.48 650.646 1006.62 639.013 989.379 631.206C969.905 622.451 950.237 623.68 930.789 626.844C916.09 629.222 901.57 633.927 887.946 641.135C870.651 650.262 856.92 663.414 844.843 677.857C834.649 690.06 824.77 703.078 818.862 718.436C813.795 731.656 807.352 744.253 802.848 757.771C797.708 773.345 796.197 789.065 796.328 805.13C796.418 815.281 798.965 824.974 805.513 832.97C819.813 850.255 840.534 853.558 860.589 854.485C878.244 855.289 895.927 857.373 914.166 853.455C936.678 848.601 958.667 842.521 980.025 834.212C989.525 830.565 1000.19 826.534 1006.76 819.412C1014.92 810.618 1023.17 801.783 1029.45 790.445C1040.93 769.746 1047.21 748.711 1048.45 731.687C1050.47 707.745 1049.07 701.065 1044.09 684.155ZM1009.7 766.991C999.933 784.696 986.613 797.64 967.684 806.866C944.367 818.24 919.529 821.645 895.132 827.702C893.824 828.022 892.475 828.733 891.542 827.123C890.276 824.84 892.437 824.399 893.601 823.521C921.926 801.677 930.516 770.713 928.712 737.65C927.36 712.998 903.038 688.037 872.406 698.094C868.901 699.247 865.743 701.955 860.367 702.047C876.277 686.637 890.803 671.83 909.511 662.343C920.518 656.766 931.97 652.758 944.754 655.62C955.27 657.975 966.037 654.987 976.849 659.489C987.566 663.933 995.4 671.306 1003.33 678.693C1007.36 682.515 1012.48 685.206 1015.33 691.084C1018.6 697.692 1019.83 704.111 1020.66 711.129C1023.04 731.005 1019.25 749.61 1009.7 766.991Z" fill="black"/>
<path d="M1009.7 766.991C999.935 784.696 986.615 797.641 967.687 806.866C944.369 818.241 919.531 821.646 895.134 827.702C893.826 828.022 892.477 828.734 891.544 827.123C890.278 824.84 892.439 824.4 893.603 823.521C921.928 801.677 930.518 770.713 928.715 737.65C927.362 712.999 903.04 688.037 872.408 698.095C868.904 699.247 865.746 701.956 860.37 702.048C876.28 686.637 890.805 671.831 909.513 662.343C920.52 656.766 931.973 652.758 944.757 655.62C955.272 657.976 966.039 654.987 976.851 659.49C987.568 663.933 995.403 671.307 1003.33 678.693C1007.36 682.516 1012.48 685.206 1015.33 691.084C1018.6 697.693 1019.83 704.111 1020.66 711.129C1023.05 731.005 1019.25 749.611 1009.7 766.991Z" fill="white"/>
<path d="M907.432 580.598C879.985 588.416 853.084 596.364 834.871 620.963C830.819 626.437 827.552 631.4 831.927 636.837C836.559 642.593 842.68 640.897 848.875 637.496C857.716 632.642 864.637 625.34 873.487 620.341C893.676 608.938 914.554 602.305 938.159 604.819C948.753 607.102 959.743 604.884 970.685 605.701C976.595 606.142 981.183 602.925 982.313 596.447C983.405 590.21 979.356 586.557 974.487 585.543C952.414 580.922 930.601 573.999 907.432 580.598Z" fill="black"/>
<path d="M408.738 538.038C403.738 538.157 399.261 541.221 399.302 547.546C399.342 553.746 403.101 557.739 408.533 558.389C419.425 559.697 429.849 563.718 443.045 563.624C470.846 566.595 494.69 580.694 514.003 603.229C517.696 607.537 521.601 611.672 526.377 614.856C530.686 617.729 535.327 617.973 539.434 615.132C543.568 612.273 544.38 606.764 542.343 603.235C538.784 597.075 536.898 589.68 532.238 584.583C512.504 562.991 488.015 548.432 460.198 539.893C443.414 534.74 425.91 537.631 408.738 538.038Z" fill="black"/>
<path d="M744.222 835.237L600.256 825.035L647.206 949.818L744.222 835.237Z" fill="black" stroke="black" stroke-width="0.657402"/>
<path d="M272.254 933.078C295.457 913.414 315.748 890.694 340.582 872.915C343.795 870.615 349.463 867.403 351.29 863.748" stroke="#F1D301" stroke-width="19.722" stroke-linecap="round"/>
<path d="M322.863 956.65C342.766 937.059 364.051 917.756 386.877 901.611C390.39 899.126 396.179 896.502 398.432 892.559C399.573 890.563 402.372 888.235 403.979 886.628" stroke="#F1D301" stroke-width="19.722" stroke-linecap="round"/>
<path d="M906.645 987.642C929.848 967.979 950.139 945.259 974.973 927.48C978.186 925.18 983.853 921.968 985.68 918.313" stroke="#F1D301" stroke-width="19.722" stroke-linecap="round"/>
<path d="M957.258 1011.21C977.16 991.623 998.445 972.321 1021.27 956.175C1024.78 953.691 1030.57 951.067 1032.83 947.124C1033.97 945.127 1036.77 942.799 1038.37 941.192" stroke="#F1D301" stroke-width="19.722" stroke-linecap="round"/>
</g>
<defs>
<clipPath id="clip0_38_227">
<rect width="1203.27" height="1203.27" fill="white" transform="translate(143.639) rotate(6.85598)"/>
</clipPath>
</defs>
</svg>
